<svg xmlns="http://www.w3.org/2000/svg" viewBox="0 0 32 32" fill="none">
  <defs>
    <linearGradient id="g" x1="0" y1="0" x2="32" y2="32" gradientUnits="userSpaceOnUse">
      <stop stop-color="#7cc4f4"/>
      <stop offset="1" stop-color="#3b8fd6"/>
    </linearGradient>
  </defs>
  <rect width="32" height="32" rx="7" fill="#0b1120"/>
  <rect x="0.5" y="0.5" width="31" height="31" rx="6.5" stroke="url(#g)" stroke-opacity="0.35"/>
  <path d="M16 7a5 5 0 0 1 5 5v1h1a2 2 0 0 1 2 2v8a2 2 0 0 1-2 2H10a2 2 0 0 1-2-2v-8a2 2 0 0 1 2-2h1v-1a5 5 0 0 1 5-5zm0 2a3 3 0 0 0-3 3v1h6v-1a3 3 0 0 0-3-3zm0 7a2 2 0 1 0 0 4 2 2 0 0 0 0-4z" fill="url(#g)"/>
</svg>
